<svg xmlns="http://www.w3.org/2000/svg" width="25.644" height="17.951" viewBox="0 0 25.644 17.951">
  <path id="contact-card-email" d="M-234.153-457.049H-216.2a3.825,3.825,0,0,0,2.72-1.126,3.826,3.826,0,0,0,1.124-2.719l0-10.263A3.847,3.847,0,0,0-216.2-475h-17.954a3.822,3.822,0,0,0-2.718,1.126A3.824,3.824,0,0,0-238-471.156l0,10.263A3.849,3.849,0,0,0-234.153-457.049Zm18.858-2.939a1.272,1.272,0,0,1-.905.374h-17.953a1.281,1.281,0,0,1-1.28-1.28l0-9.838,9.411,8.235a1.283,1.283,0,0,0,.845.318,1.283,1.283,0,0,0,.845-.318l9.411-8.235,0,9.838A1.272,1.272,0,0,1-215.3-459.988Zm-18.194-12.447h16.62l-8.31,7.271Z" transform="translate(238 475)" fill="#e0af7e"/>
</svg>
