<svg xmlns="http://www.w3.org/2000/svg" width="20" height="14" viewBox="0 0 20 14">
  <path id="Path_886" data-name="Path 886" d="M-235-461h14a2.983,2.983,0,0,0,2.121-.878A2.984,2.984,0,0,0-218-464l0-8a3,3,0,0,0-3-3h-14a2.981,2.981,0,0,0-2.12.878A2.982,2.982,0,0,0-238-472l0,8A3,3,0,0,0-235-461Zm14.708-2.292A.992.992,0,0,1-221-463h-14a1,1,0,0,1-1-1l0-7.673,7.34,6.423A1,1,0,0,0-228-465a1,1,0,0,0,.659-.248l7.34-6.423,0,7.673A.992.992,0,0,1-220.292-463.292ZM-234.482-473h12.962L-228-467.329Z" transform="translate(238 475)" fill="#c5cfd1"/>
</svg>
