<svg xmlns="http://www.w3.org/2000/svg" width="52.325" height="72.68" viewBox="0 0 52.325 72.68">
  <path id="favicon" d="M1166.8,415.037V397.86a1.649,1.649,0,0,0-.777-1.405l-16.189-10.145.025-15.121a1.665,1.665,0,0,0-1.078-1.556l-13.513-5.043a1.658,1.658,0,0,0-1.936.6l-18.555,26.376a1.652,1.652,0,0,0-.3.954v12.937a1.651,1.651,0,0,0,.464,1.15l28.943,30.052a1.665,1.665,0,0,0,1.194.507h.048a1.663,1.663,0,0,0,1.211-.579l1.254-1.463,18.732-18.92A1.647,1.647,0,0,0,1166.8,415.037Zm-21.671,17.857-3-3.9V393.431l4.385-3.654-.069,41.587-1.295,1.51Zm4.7-42.675,13.657,8.558v15.578l-13.721,13.857Zm-3.308-4.753c-.029.021-.059.038-.086.061l-7.026,5.854a1.655,1.655,0,0,0-.6,1.274v33.96l-2.465-2.56V368.532l10.2,3.8Zm-13.49,35.145-15.239-15.823V393.044l15.239-21.662Z" transform="translate(-1114.479 -364.485)" fill="#fff"/>
</svg>
