<svg xmlns="http://www.w3.org/2000/svg" width="19.637" height="15.266" viewBox="0 0 19.637 15.266">
  <g id="Group_22332" data-name="Group 22332" transform="translate(-284 -3396.734)">
    <path id="Path_1695" data-name="Path 1695" d="M-37.776-700.745l.007.008.007.005a3.7,3.7,0,0,0,2.547,1A3.7,3.7,0,0,0-32.7-700.7a.579.579,0,0,0,.046-.044l5.71-5.446a5.024,5.024,0,0,0,1.582-3.66,5.025,5.025,0,0,0-1.582-3.661,5.522,5.522,0,0,0-7.524,0l-.744.715-.754-.719A5.451,5.451,0,0,0-39.723-715a5.452,5.452,0,0,0-3.566,1.31A4.91,4.91,0,0,0-45-710.049a5.379,5.379,0,0,0,1.676,4.012Zm-4.088-11.293a3.268,3.268,0,0,1,2.14-.78,3.277,3.277,0,0,1,2.256.886l.747.713a2.2,2.2,0,0,0,3.008,0l.746-.712a3.314,3.314,0,0,1,4.514,0,2.855,2.855,0,0,1,.907,2.081,2.855,2.855,0,0,1-.907,2.08l-5.709,5.448-.008.007-.007.007c-.019.017-.038.035-.058.05h0a1.545,1.545,0,0,1-2.037-.064l-5.548-5.293a3.193,3.193,0,0,1-1-2.38A2.753,2.753,0,0,1-41.864-712.038Z" transform="translate(329 4111.734)" fill="#c41d1d"/>
    <path id="Path_811" data-name="Path 811" d="M-139.464,157.216A4.929,4.929,0,0,1-141,153.537a4.5,4.5,0,0,1,1.566-3.336,5,5,0,0,1,3.269-1.2,5,5,0,0,1,3.443,1.36l.691.658.683-.654a5.06,5.06,0,0,1,6.9,0A4.6,4.6,0,0,1-123,153.72a4.6,4.6,0,0,1-1.45,3.355l-5.234,4.992c-.018.018-.038.037-.057.054a3.393,3.393,0,0,1-2.289.873,3.391,3.391,0,0,1-2.336-.915l-.006,0-.006-.007Z" transform="translate(425.818 3248.37)" fill="#c41d1d"/>
  </g>
</svg>
