<svg xmlns="http://www.w3.org/2000/svg" width="19.637" height="15.266" viewBox="0 0 19.637 15.266">
  <path id="favourite-active" d="M-37.776-700.745l.007.008.007.005a3.7,3.7,0,0,0,2.547,1A3.7,3.7,0,0,0-32.7-700.7a.579.579,0,0,0,.046-.044l5.71-5.446a5.024,5.024,0,0,0,1.582-3.66,5.025,5.025,0,0,0-1.582-3.661,5.522,5.522,0,0,0-7.524,0l-.744.715-.754-.719A5.451,5.451,0,0,0-39.723-715a5.452,5.452,0,0,0-3.566,1.31A4.91,4.91,0,0,0-45-710.049a5.379,5.379,0,0,0,1.676,4.012Zm-4.088-11.293a3.268,3.268,0,0,1,2.14-.78,3.277,3.277,0,0,1,2.256.886l.747.713a2.2,2.2,0,0,0,3.008,0l.746-.712a3.314,3.314,0,0,1,4.514,0,2.855,2.855,0,0,1,.907,2.081,2.855,2.855,0,0,1-.907,2.08l-5.709,5.448-.008.007-.007.007c-.019.017-.038.035-.058.05h0a1.545,1.545,0,0,1-2.037-.064l-5.548-5.293a3.193,3.193,0,0,1-1-2.38A2.753,2.753,0,0,1-41.864-712.038Z" transform="translate(45 715)" fill="#fff"/>
</svg>
