<svg id="Group_22530" data-name="Group 22530" xmlns="http://www.w3.org/2000/svg" width="21.885" height="21.885" viewBox="0 0 21.885 21.885">
  <path id="Path_1725" data-name="Path 1725" d="M18.68,3.205A10.943,10.943,0,0,0,3.205,18.68,10.943,10.943,0,0,0,18.68,3.205Zm-9.813-1.7A14,14,0,0,0,7.707,2.785,13.305,13.305,0,0,0,6,5.533H2.943A9.686,9.686,0,0,1,8.867,1.508ZM2.21,6.815H5.493A12.866,12.866,0,0,0,4.845,10.3H1.3A9.589,9.589,0,0,1,2.21,6.815ZM1.3,11.584H4.845a12.864,12.864,0,0,0,.648,3.486H2.21A9.589,9.589,0,0,1,1.3,11.584Zm1.639,4.769H6a13.306,13.306,0,0,0,1.7,2.748,13.99,13.99,0,0,0,1.161,1.278A9.686,9.686,0,0,1,2.943,16.352Zm7.359,3.6A12.6,12.6,0,0,1,8.707,18.3a12.214,12.214,0,0,1-1.281-1.946H10.3Zm0-4.884H6.849a11.474,11.474,0,0,1-.719-3.486H10.3Zm0-4.769H6.129a11.473,11.473,0,0,1,.72-3.486H10.3Zm0-4.769H7.427a12.209,12.209,0,0,1,1.25-1.908A12.6,12.6,0,0,1,10.3,1.934ZM20.581,10.3H17.04a12.864,12.864,0,0,0-.648-3.486h3.284A9.588,9.588,0,0,1,20.581,10.3ZM18.943,5.533H15.884a13.306,13.306,0,0,0-1.7-2.748,13.991,13.991,0,0,0-1.161-1.278A9.686,9.686,0,0,1,18.943,5.533Zm-7.359-3.6a12.6,12.6,0,0,1,1.594,1.655,12.217,12.217,0,0,1,1.281,1.946H11.584Zm0,4.884h3.453a11.473,11.473,0,0,1,.719,3.486H11.584Zm0,4.769h4.172a11.473,11.473,0,0,1-.72,3.486H11.584Zm0,8.368v-3.6h2.875a12.207,12.207,0,0,1-1.25,1.908A12.6,12.6,0,0,1,11.584,19.952Zm1.434.426A14,14,0,0,0,14.179,19.1a13.305,13.305,0,0,0,1.7-2.748h3.059A9.686,9.686,0,0,1,13.018,20.378Zm6.658-5.308H16.392a12.866,12.866,0,0,0,.648-3.486h3.541A9.588,9.588,0,0,1,19.676,15.07Z" transform="translate(0 0)" fill="#fff"/>
</svg>
