<svg xmlns="http://www.w3.org/2000/svg" width="43" height="43" viewBox="0 0 43 43">
  <g id="Group_22512" data-name="Group 22512" transform="translate(-1342 -1184)">
    <rect id="Rectangle_4351" data-name="Rectangle 4351" width="43" height="43" rx="4" transform="translate(1342 1184)" fill="#e0af7e"/>
    <path id="Path_38121" data-name="Path 38121" d="M160.706-82.707l-4-4A1,1,0,0,0,156-87a1,1,0,0,0-.707.293l-4,4a1,1,0,0,0,0,1.414,1,1,0,0,0,1.414,0L156-84.586l3.293,3.293a1,1,0,0,0,1.414,0A1,1,0,0,0,160.706-82.707Z" transform="translate(1448 1362) rotate(-90)" fill="#fff"/>
  </g>
</svg>
