<svg id="instagram-y" xmlns="http://www.w3.org/2000/svg" width="49" height="49" viewBox="0 0 49 49">
  <path id="Path_34965" data-name="Path 34965" d="M24.5,0A24.5,24.5,0,1,1,0,24.5,24.5,24.5,0,0,1,24.5,0Z" transform="translate(0 0)" fill="#e0af7e" opacity="0.255"/>
  <path id="Path_34966" data-name="Path 34966" d="M441.564,2h10.954a7.569,7.569,0,0,1,7.564,7.564V20.518a7.564,7.564,0,0,1-7.564,7.564H441.564A7.569,7.569,0,0,1,434,20.518V9.564A7.564,7.564,0,0,1,441.564,2M441.3,4.608A4.7,4.7,0,0,0,436.608,9.3h0V20.779a4.692,4.692,0,0,0,4.695,4.695h11.476a4.7,4.7,0,0,0,4.695-4.695h0V9.3a4.692,4.692,0,0,0-4.695-4.695H441.3m12.584,1.956a1.63,1.63,0,1,1-1.63,1.63,1.631,1.631,0,0,1,1.63-1.63M447.041,8.52a6.52,6.52,0,1,1-6.52,6.52,6.521,6.521,0,0,1,6.52-6.52m0,2.608a3.912,3.912,0,1,0,3.912,3.912A3.912,3.912,0,0,0,447.041,11.128Z" transform="translate(-422.541 9.111)" fill="#e0af7e"/>
</svg>
