<svg xmlns="http://www.w3.org/2000/svg" width="37.575" height="37.575" viewBox="0 0 37.575 37.575">
  <g id="Group_22003" data-name="Group 22003" transform="translate(15967 7715.287)">
    <path id="Path_37949" data-name="Path 37949" d="M304.2-142h-8.4a5.8,5.8,0,0,0-5.8,5.8v8.4a5.8,5.8,0,0,0,5.8,5.8h8.4a5.8,5.8,0,0,0,5.8-5.8v-8.4A5.8,5.8,0,0,0,304.2-142ZM300-127a5,5,0,0,1-5-5,5,5,0,0,1,5-5,5,5,0,0,1,5,5A5,5,0,0,1,300-127Zm5.25-9a1.25,1.25,0,0,1-1.25-1.25,1.25,1.25,0,0,1,1.25-1.25,1.25,1.25,0,0,1,1.25,1.25A1.25,1.25,0,0,1,305.25-136ZM300-135a3,3,0,0,0-3,3,3,3,0,0,0,3,3,3,3,0,0,0,3-3A3,3,0,0,0,300-135Zm0,0a3,3,0,0,0-3,3,3,3,0,0,0,3,3,3,3,0,0,0,3-3A3,3,0,0,0,300-135Zm0,0a3,3,0,0,0-3,3,3,3,0,0,0,3,3,3,3,0,0,0,3-3A3,3,0,0,0,300-135Z" transform="translate(-16248.212 -7564.499)" fill="#2a4b76"/>
    <path id="Path_34965" data-name="Path 34965" d="M18.787,0A18.787,18.787,0,1,1,0,18.787,18.787,18.787,0,0,1,18.787,0Z" transform="translate(-15967 -7715.287)" fill="#969caa" opacity="0.075"/>
  </g>
</svg>
