<svg id="insta" xmlns="http://www.w3.org/2000/svg" width="48.944" height="48.944" viewBox="0 0 48.944 48.944">
  <path id="Path_37949" data-name="Path 37949" d="M308.5-142H297.555A7.56,7.56,0,0,0,290-134.445V-123.5a7.56,7.56,0,0,0,7.555,7.555H308.5a7.56,7.56,0,0,0,7.555-7.555v-10.942A7.56,7.56,0,0,0,308.5-142Zm-5.471,19.539a6.515,6.515,0,0,1-6.513-6.513,6.515,6.515,0,0,1,6.513-6.513,6.515,6.515,0,0,1,6.513,6.513A6.515,6.515,0,0,1,303.026-122.461Zm6.839-11.723a1.629,1.629,0,0,1-1.628-1.628,1.629,1.629,0,0,1,1.628-1.628,1.629,1.629,0,0,1,1.628,1.628A1.629,1.629,0,0,1,309.864-134.184Zm-6.839,1.3a3.9,3.9,0,0,0-3.908,3.908,3.9,3.9,0,0,0,3.908,3.908,3.9,3.9,0,0,0,3.908-3.908A3.9,3.9,0,0,0,303.026-132.882Zm0,0a3.9,3.9,0,0,0-3.908,3.908,3.9,3.9,0,0,0,3.908,3.908,3.9,3.9,0,0,0,3.908-3.908A3.9,3.9,0,0,0,303.026-132.882Zm0,0a3.9,3.9,0,0,0-3.908,3.908,3.9,3.9,0,0,0,3.908,3.908,3.9,3.9,0,0,0,3.908-3.908A3.9,3.9,0,0,0,303.026-132.882Z" transform="translate(-278.555 153.447)" fill="#fff"/>
  <path id="Path_34965" data-name="Path 34965" d="M24.472,0A24.472,24.472,0,1,1,0,24.472,24.472,24.472,0,0,1,24.472,0Z" fill="#fff" opacity="0.246"/>
</svg>
