<svg xmlns="http://www.w3.org/2000/svg" width="20" height="18" viewBox="0 0 20 18">
  <g id="investments-active" transform="translate(766 -51)">
    <g id="Group_5964" data-name="Group 5964">
      <rect id="Rectangle_2573" data-name="Rectangle 2573" width="9.001" height="3" transform="translate(-757 55)" fill="none" stroke="#fff" stroke-linecap="round" stroke-linejoin="round" stroke-width="2"/>
      <rect id="Rectangle_2574" data-name="Rectangle 2574" width="9.001" height="3" transform="translate(-757 52)" fill="none" stroke="#fff" stroke-linecap="round" stroke-linejoin="round" stroke-width="2"/>
      <rect id="Rectangle_2575" data-name="Rectangle 2575" width="18" height="10" transform="translate(-765 58)" fill="none" stroke="#fff" stroke-linecap="round" stroke-linejoin="round" stroke-width="2"/>
    </g>
    <path id="Path_9548" data-name="Path 9548" d="M-755,62.118s-.009-.727-1.01-.727a.838.838,0,0,0-.875,1.2,1.2,1.2,0,0,0,.838.47c.257.058,1.047.192,1.047.808a.907.907,0,0,1-1.01.862c-.4,0-.99-.105-.99-.777m.99-2.566,0-.891m0,5,0-.766" fill="none" stroke="#fff" stroke-linecap="round" stroke-linejoin="round" stroke-width="1"/>
  </g>
</svg>
