<svg id="li" xmlns="http://www.w3.org/2000/svg" width="48.944" height="48.944" viewBox="0 0 48.944 48.944">
  <path id="Path_33013" data-name="Path 33013" d="M24.472,0A24.472,24.472,0,1,1,0,24.472,24.472,24.472,0,0,1,24.472,0Z" transform="translate(0)" fill="#fff" opacity="0.246"/>
  <path id="Path_34967" data-name="Path 34967" d="M26.447,74.447h-5.21V65.654a2.927,2.927,0,0,0-2.931-2.527,2.345,2.345,0,0,0-2.28,2.527v8.792h-5.21V58.816h5.21v2.605a5.974,5.974,0,0,1,4.559-2.293A5.873,5.873,0,0,1,26.447,65v9.444m-18.236,0H3V58.816H8.21V74.447M5.605,51A2.605,2.605,0,1,1,3,53.605,2.613,2.613,0,0,1,5.605,51Z" transform="translate(11.395 -40.205)" fill="#fff"/>
</svg>
