<svg id="linkedin-y" xmlns="http://www.w3.org/2000/svg" width="49" height="49" viewBox="0 0 49 49">
  <path id="Path_33013" data-name="Path 33013" d="M24.5,0A24.5,24.5,0,1,1,0,24.5,24.5,24.5,0,0,1,24.5,0Z" transform="translate(0 0)" fill="#e0af7e" opacity="0.255"/>
  <path id="Path_34967" data-name="Path 34967" d="M26.473,74.473H21.257v-8.8a2.93,2.93,0,0,0-2.934-2.53,2.347,2.347,0,0,0-2.282,2.53v8.8H10.824V58.824h5.216v2.608a5.98,5.98,0,0,1,4.564-2.3,5.88,5.88,0,0,1,5.868,5.881v9.454m-18.257,0H3V58.824H8.216V74.473M5.608,51A2.608,2.608,0,1,1,3,53.608,2.616,2.616,0,0,1,5.608,51Z" transform="translate(11.411 -40.193)" fill="#e0af7e"/>
</svg>
