<svg xmlns="http://www.w3.org/2000/svg" width="37.575" height="37.575" viewBox="0 0 37.575 37.575">
  <g id="Group_22005" data-name="Group 22005" transform="translate(15876.312 7715.287)">
    <path id="Path_33013" data-name="Path 33013" d="M18.787,0A18.787,18.787,0,1,1,0,18.787,18.787,18.787,0,0,1,18.787,0Z" transform="translate(-15876.312 -7715.287)" fill="#969caa" opacity="0.08"/>
    <path id="Path_34967" data-name="Path 34967" d="M21,69H17V62.25a2.247,2.247,0,0,0-2.25-1.94A1.8,1.8,0,0,0,13,62.25V69H9V57h4v2a4.586,4.586,0,0,1,3.5-1.76A4.509,4.509,0,0,1,21,61.75V69M7,69H3V57H7V69M5,51a2,2,0,1,1-2,2A2.006,2.006,0,0,1,5,51Z" transform="translate(-15868.261 -7758)" fill="#2a4b76"/>
  </g>
</svg>
