<svg xmlns="http://www.w3.org/2000/svg" width="17.14" height="24.485" viewBox="0 0 17.14 24.485">
  <path id="Path_994" data-name="Path 994" d="M-379-325.43c0,6.5,7.328,15.125,7.641,15.488a1.222,1.222,0,0,0,.929.427,1.222,1.222,0,0,0,.929-.427c.312-.364,7.641-8.989,7.641-15.488a8.579,8.579,0,0,0-8.57-8.57A8.579,8.579,0,0,0-379-325.43Zm8.57-6.121a6.128,6.128,0,0,1,6.121,6.121c0,4.342-4.207,10.267-6.121,12.738-1.916-2.471-6.121-8.389-6.121-12.738A6.128,6.128,0,0,1-370.43-331.551Zm0,9.794a3.677,3.677,0,0,0,3.673-3.673,3.677,3.677,0,0,0-3.673-3.673,3.677,3.677,0,0,0-3.673,3.673A3.677,3.677,0,0,0-370.43-321.757Zm0-4.9a1.226,1.226,0,0,1,1.224,1.224,1.226,1.226,0,0,1-1.224,1.224,1.226,1.226,0,0,1-1.224-1.224A1.226,1.226,0,0,1-370.43-326.654Z" transform="translate(379 334)" fill="#e0af7e"/>
</svg>
