<svg xmlns="http://www.w3.org/2000/svg" width="14" height="20" viewBox="0 0 14 20">
  <path id="Path_994" data-name="Path 994" d="M-379-327c0,5.309,5.986,12.354,6.241,12.651A1,1,0,0,0-372-314a1,1,0,0,0,.759-.349c.255-.3,6.241-7.342,6.241-12.651a7.008,7.008,0,0,0-7-7A7.008,7.008,0,0,0-379-327Zm7-5a5.006,5.006,0,0,1,5,5c0,3.547-3.436,8.386-5,10.4-1.565-2.018-5-6.852-5-10.4A5.006,5.006,0,0,1-372-332Zm0,8a3,3,0,0,0,3-3,3,3,0,0,0-3-3,3,3,0,0,0-3,3A3,3,0,0,0-372-324Zm0-4a1,1,0,0,1,1,1,1,1,0,0,1-1,1,1,1,0,0,1-1-1A1,1,0,0,1-372-328Z" transform="translate(379 334)" fill="#c5cfd1"/>
</svg>
