<svg xmlns="http://www.w3.org/2000/svg" width="91.894" height="128.63" viewBox="0 0 91.894 128.63">
  <g id="Group_22314" data-name="Group 22314" transform="translate(-388.919 -229.496)">
    <g id="Group_22196" data-name="Group 22196" transform="translate(388.919 319.27)">
      <g id="Group_22190" data-name="Group 22190" transform="translate(77.462 11.128)">
        <path id="Path_37951" data-name="Path 37951" d="M499.889,355.246v13.871a13.873,13.873,0,0,1-13.858,13.858h-.574v-5.028a8.79,8.79,0,0,0,8.784-8.785V355.246Z" transform="translate(-485.457 -355.246)" fill="#2a4b76"/>
      </g>
      <g id="Group_22191" data-name="Group 22191" transform="translate(72.717 0)">
        <rect id="Rectangle_3996" data-name="Rectangle 3996" width="5.712" height="26.993" fill="#2a4b76"/>
      </g>
      <g id="Group_22192" data-name="Group 22192" transform="translate(0 11.128)">
        <path id="Path_37952" data-name="Path 37952" d="M454.691,355.311v15.865H403.2l-.045.265a13.819,13.819,0,0,1-13.665,11.534h-.568v-5.028a8.8,8.8,0,0,0,8.785-8.785V355.246h5.648v10.211h45.627V355.311Z" transform="translate(-388.919 -355.246)" fill="#2a4b76"/>
      </g>
      <g id="Group_22193" data-name="Group 22193" transform="translate(59.672 32.757)">
        <path id="Path_37953" data-name="Path 37953" d="M469.387,385.255a3.05,3.05,0,1,1-3.053-3.053A3.054,3.054,0,0,1,469.387,385.255Z" transform="translate(-463.287 -382.202)" fill="#2a4b76"/>
      </g>
      <g id="Group_22194" data-name="Group 22194" transform="translate(52.024 32.757)">
        <path id="Path_37954" data-name="Path 37954" d="M456.808,382.2a3.05,3.05,0,1,0,3.046,3.053A3.055,3.055,0,0,0,456.808,382.2Z" transform="translate(-453.755 -382.202)" fill="#2a4b76"/>
      </g>
      <g id="Group_22195" data-name="Group 22195" transform="translate(8.333 0)">
        <path id="Path_37955" data-name="Path 37955" d="M402.351,341.378a3.053,3.053,0,1,0,3.053,3.053A3.058,3.058,0,0,0,402.351,341.378Z" transform="translate(-399.304 -341.378)" fill="#2a4b76"/>
      </g>
    </g>
    <path id="Path_37956" data-name="Path 37956" d="M461.425,290.528V269.789a1.991,1.991,0,0,0-.939-1.7l-19.546-12.249.03-18.255a2.009,2.009,0,0,0-1.3-1.878l-16.314-6.088a2,2,0,0,0-2.337.724l-22.4,31.844a1.991,1.991,0,0,0-.364,1.151v15.619a2,2,0,0,0,.559,1.389l34.943,36.282a2.012,2.012,0,0,0,1.442.612h.058a2.008,2.008,0,0,0,1.462-.7l1.514-1.766,22.616-22.843A1.99,1.99,0,0,0,461.425,290.528Zm-26.164,21.559-3.625-4.7V264.443l5.3-4.412-.083,50.208-1.563,1.824Zm5.671-51.522L457.421,270.9V289.7l-16.565,16.731Zm-3.994-5.738c-.034.025-.071.046-.1.073l-8.483,7.067a2,2,0,0,0-.72,1.537v41l-2.977-3.09V234.382l12.31,4.593Zm-16.286,42.431-18.4-19.1V263.976l18.4-26.152Z" transform="translate(-1.844 0)" fill="#2a4b76"/>
  </g>
</svg>
