<svg xmlns="http://www.w3.org/2000/svg" width="21" height="21" viewBox="0 0 21 21">
  <path id="Path_1756" data-name="Path 1756" d="M100.055-121.716a1.284,1.284,0,0,0-.055.374v1.029A1.312,1.312,0,0,0,101.313-119h18.375A1.312,1.312,0,0,0,121-120.312v-1.029a1.284,1.284,0,0,0-.055-.374A10.823,10.823,0,0,0,110.5-129.5,10.823,10.823,0,0,0,100.055-121.716Zm10.445-5.159a8.212,8.212,0,0,1,7.7,5.25H102.8A8.212,8.212,0,0,1,110.5-126.875Zm3.938-9.187A3.942,3.942,0,0,0,110.5-140a3.942,3.942,0,0,0-3.937,3.938,3.942,3.942,0,0,0,3.938,3.938A3.942,3.942,0,0,0,114.438-136.062Zm-5.25,0a1.314,1.314,0,0,1,1.313-1.312,1.314,1.314,0,0,1,1.313,1.313,1.314,1.314,0,0,1-1.312,1.313A1.314,1.314,0,0,1,109.188-136.062Z" transform="translate(-100 140)" fill="#fff"/>
</svg>
