<svg xmlns="http://www.w3.org/2000/svg" width="20" height="20" viewBox="0 0 20 20">
  <path id="q-mark" d="M156-670a10.011,10.011,0,0,1,10,10,10.011,10.011,0,0,1-10,10,10.011,10.011,0,0,1-10-10A10.011,10.011,0,0,1,156-670Zm0,18a8.009,8.009,0,0,0,8-8,8.009,8.009,0,0,0-8-8,8.009,8.009,0,0,0-8,8A8.009,8.009,0,0,0,156-652Zm-1-4a1,1,0,0,0,1,1,1,1,0,0,0,1-1,1,1,0,0,0-1-1A1,1,0,0,0,155-656Zm-2-6a2.993,2.993,0,0,0,1.621,2.665.64.64,0,0,1,.377.451,1,1,0,0,0,.991.884.918.918,0,0,0,.117-.007,1,1,0,0,0,.878-1.109,2.625,2.625,0,0,0-1.442-1.995A1,1,0,0,1,155-662a1,1,0,0,1,1-1,1,1,0,0,1,1,1,1,1,0,0,0,1,1,1,1,0,0,0,1-1,3,3,0,0,0-3-3A3,3,0,0,0,153-662Z" transform="translate(-146 670)"/>
</svg>
