<svg xmlns="http://www.w3.org/2000/svg" width="20" height="20" viewBox="0 0 20 20">
  <path id="Path_38128" data-name="Path 38128" d="M394-366a7.953,7.953,0,0,0,4.9-1.688l5.395,5.395A1,1,0,0,0,405-362a1,1,0,0,0,.707-.293,1,1,0,0,0,0-1.414l-5.395-5.395A7.953,7.953,0,0,0,402-374a8.009,8.009,0,0,0-8-8,8.009,8.009,0,0,0-8,8A8.009,8.009,0,0,0,394-366Zm0-14a6.006,6.006,0,0,1,6,6,6.006,6.006,0,0,1-6,6,6.006,6.006,0,0,1-6-6A6.006,6.006,0,0,1,394-380Z" transform="translate(-386 382)" fill="#fff"/>
</svg>
