<svg xmlns="http://www.w3.org/2000/svg" width="20" height="18" viewBox="0 0 20 18">
  <path id="sign-out" d="M194-762V-750a3,3,0,0,0,3,3H204a3,3,0,0,0,3-3v-3a1,1,0,0,0-1-1,1,1,0,0,0-1,1v3a1,1,0,0,1-1,1h-7.01a1,1,0,0,1-1-1V-762a1,1,0,0,1,1-1H204a1,1,0,0,1,1,1v3a1,1,0,0,0,1,1,1,1,0,0,0,1-1v-3a3,3,0,0,0-3-3h-7.01A3,3,0,0,0,194-762Zm19.707,6.711-3,3A1,1,0,0,1,210-752a1,1,0,0,1-.707-.293,1,1,0,0,1,0-1.414L210.586-755H201a1,1,0,0,1-1-1,1,1,0,0,1,1-1h9.586l-1.293-1.293a1,1,0,0,1,0-1.414,1,1,0,0,1,1.414,0l3,3A1,1,0,0,1,213.707-755.293Z" transform="translate(-194 765)" fill="#2a4b76"/>
</svg>
