<svg xmlns="http://www.w3.org/2000/svg" width="129.607" height="129.607" viewBox="0 0 129.607 129.607">
  <g id="target" transform="translate(0 0)">
    <path id="Path_38137" data-name="Path 38137" d="M80.171,17.6a62.281,62.281,0,0,0-21.253,3.719l.875.875a11.409,11.409,0,0,1,3.158,10.1l-2,11.012A41.607,41.607,0,1,1,43.3,60.955l-11.011,2a11.451,11.451,0,0,1-2.035.183,11.331,11.331,0,0,1-8.066-3.342l-.874-.874A62.574,62.574,0,1,0,80.171,17.6Z" transform="translate(-13.138 -13.138)" fill="#2a4b76"/>
    <path id="Path_38138" data-name="Path 38138" d="M226.207,230.01a3.79,3.79,0,0,1-2.688-1.113l-8.78-8.78a13,13,0,1,0,5.377-5.377l8.78,8.78a3.8,3.8,0,0,1-2.689,6.49Z" transform="translate(-159.173 -159.174)" fill="#2a4b76"/>
    <path id="Path_38139" data-name="Path 38139" d="M137.834,143.21a34.02,34.02,0,1,0,5.377-5.377l9.56,9.56a20.618,20.618,0,1,1-5.377,5.377Z" transform="translate(-97.354 -97.353)" fill="#2a4b76"/>
    <path id="Path_38140" data-name="Path 38140" d="M95.193,17.8a3.8,3.8,0,0,0-1.053-3.367L80.823,1.113a3.8,3.8,0,0,0-6.251,1.361l-3.763,10.1L92.253,34.015Z" transform="translate(-52.861 0)" fill="#2a4b76"/>
    <path id="Path_38141" data-name="Path 38141" d="M17.119,95.254a3.816,3.816,0,0,0,.678-.061l16.217-2.94L12.571,70.809l-10.1,3.763a3.8,3.8,0,0,0-1.361,6.251L14.431,94.14a3.8,3.8,0,0,0,2.689,1.114Z" transform="translate(0 -52.862)" fill="#2a4b76"/>
  </g>
</svg>
