<svg xmlns="http://www.w3.org/2000/svg" width="37.575" height="37.575" viewBox="0 0 37.575 37.575">
  <g id="Group_22002" data-name="Group 22002" transform="translate(16010.656 7715.287)">
    <path id="Path_33012" data-name="Path 33012" d="M18.787,0A18.787,18.787,0,1,1,0,18.787,18.787,18.787,0,0,1,18.787,0Z" transform="translate(-16010.656 -7715.287)" fill="#969caa" opacity="0.084"/>
    <path id="Path_34992" data-name="Path 34992" d="M257.506-90.974a6.539,6.539,0,0,1-1.877.527,3.281,3.281,0,0,0,1.435-1.816,6.6,6.6,0,0,1-2.076.8,3.224,3.224,0,0,0-2.412-1.038,3.27,3.27,0,0,0-3.259,3.274,3.4,3.4,0,0,0,.084.748,9.306,9.306,0,0,1-6.747-3.419,3.239,3.239,0,0,0-.443,1.641,3.222,3.222,0,0,0,1.458,2.717,3.238,3.238,0,0,1-1.488-.382v.023a3.277,3.277,0,0,0,2.625,3.213,3.221,3.221,0,0,1-.862.114,3.248,3.248,0,0,1-.611-.061,3.266,3.266,0,0,0,3.053,2.274,6.5,6.5,0,0,1-4.068,1.4A6.656,6.656,0,0,1,241.54-81a9.268,9.268,0,0,0,5.022,1.473,9.262,9.262,0,0,0,9.318-9.318c0-.145,0-.282-.008-.427A6.542,6.542,0,0,0,257.506-90.974Z" transform="translate(-16239.799 -7610.5)" fill="#2a4b76"/>
  </g>
</svg>
