<svg id="twt" xmlns="http://www.w3.org/2000/svg" width="48.944" height="48.944" viewBox="0 0 48.944 48.944">
  <path id="Path_33012" data-name="Path 33012" d="M24.472,0A24.472,24.472,0,1,1,0,24.472,24.472,24.472,0,0,1,24.472,0Z" fill="#fff" opacity="0.246"/>
  <path id="Path_34992" data-name="Path 34992" d="M262.337-90.512a8.517,8.517,0,0,1-2.446.686,4.273,4.273,0,0,0,1.869-2.366,8.591,8.591,0,0,1-2.7,1.044,4.2,4.2,0,0,0-3.141-1.352,4.26,4.26,0,0,0-4.245,4.265,4.434,4.434,0,0,0,.109.974,12.123,12.123,0,0,1-8.788-4.454,4.219,4.219,0,0,0-.577,2.137,4.2,4.2,0,0,0,1.9,3.539,4.218,4.218,0,0,1-1.939-.5v.03a4.268,4.268,0,0,0,3.42,4.185,4.2,4.2,0,0,1-1.123.149,4.231,4.231,0,0,1-.8-.08,4.255,4.255,0,0,0,3.976,2.962,8.471,8.471,0,0,1-5.3,1.829,8.669,8.669,0,0,1-1.014-.06,12.073,12.073,0,0,0,6.541,1.919,12.065,12.065,0,0,0,12.138-12.138c0-.189,0-.368-.01-.557A8.521,8.521,0,0,0,262.337-90.512Z" transform="translate(-225.391 108.505)" fill="#fff"/>
</svg>
