<svg xmlns="http://www.w3.org/2000/svg" width="129.667" height="129.608" viewBox="0 0 129.667 129.608">
  <g id="visionary" transform="translate(0 -0.117)">
    <path id="Path_38142" data-name="Path 38142" d="M137.885,223.251a7.51,7.51,0,0,0,2.477-5.54,7.594,7.594,0,1,0-15.188,0,7.511,7.511,0,0,0,2.477,5.54l-27.607,55.72H91v7.594h13.738l24.233-48.971v41.377h-7.594v7.594h22.783v-7.594h-7.594V237.594L160.8,286.565h13.738v-7.594h-9.044Z" transform="translate(-67.964 -156.841)" fill="#2a4b76"/>
    <path id="Path_38143" data-name="Path 38143" d="M413.051,2.082l1.966,7.334-7.338,1.966,9.828,36.677,7.339-1.967,1.966,7.335,7.334-1.965L420.385.117Z" transform="translate(-304.479)" fill="#2a4b76"/>
    <path id="Path_38144" data-name="Path 38144" d="M17.161,182.239l-3.931-14.67,7.338-1.967,1.966,7.338,7.335-1.965-5.9-22.008-7.334,1.965,1.965,7.336-7.338,1.967L7.335,145.562,0,147.527,9.826,184.2Z" transform="translate(0 -108.627)" fill="#2a4b76"/>
    <path id="Path_38145" data-name="Path 38145" d="M136.774,103.864a15,15,0,0,1-.589-3.956A15.154,15.154,0,0,1,166,96.032l26.264-6.97-9.828-36.677-66.523,17.69,9.826,36.677Z" transform="translate(-86.57 -39.037)" fill="#2a4b76"/>
  </g>
</svg>
