<svg xmlns="http://www.w3.org/2000/svg" width="20" height="20" viewBox="0 0 20 20">
  <path id="Path_1504" data-name="Path 1504" d="M-31.25-34.04c.25.13.41.2.46.3A1.968,1.968,0,0,1-31-32.56a2.435,2.435,0,0,1-1.7,1.12c-.46.02-.47.36-2.96-.73a10.238,10.238,0,0,1-4.11-3.92,4.846,4.846,0,0,1-.92-2.61,2.726,2.726,0,0,1,.95-2.04.746.746,0,0,1,.68-.26h.47c.15,0,.36-.06.55.45l.69,1.87a.456.456,0,0,1,.01.44l-.27.41-.39.42c-.12.12-.26.25-.12.5a7.422,7.422,0,0,0,1.32,1.78,6.607,6.607,0,0,0,1.95,1.3c.24.14.39.12.54-.04l.81-.94c.19-.25.35-.19.58-.11l1.67.88M-36-46A10,10,0,0,1-26-36,10,10,0,0,1-36-26a9.969,9.969,0,0,1-5.35-1.55L-46-26l1.55-4.65A9.969,9.969,0,0,1-46-36,10,10,0,0,1-36-46m0,2a8,8,0,0,0-8,8,7.95,7.95,0,0,0,1.46,4.61l-.96,2.89,2.89-.96A7.95,7.95,0,0,0-36-28a8,8,0,0,0,8-8A8,8,0,0,0-36-44Z" transform="translate(46 46)" fill="#c5cfd1"/>
</svg>
