<svg xmlns="http://www.w3.org/2000/svg" width="24.594" height="24.594" viewBox="0 0 24.594 24.594">
  <path id="whatsapp-y" d="M-27.862-31.293c.307.16.5.246.566.369a2.421,2.421,0,0,1-.258,1.451,3,3,0,0,1-2.09,1.377c-.566.025-.578.443-3.64-.9a12.589,12.589,0,0,1-5.054-4.82,5.959,5.959,0,0,1-1.131-3.209A3.352,3.352,0,0,1-38.3-39.532a.917.917,0,0,1,.836-.32h.578c.184,0,.443-.074.676.553l.848,2.3a.561.561,0,0,1,.012.541l-.332.5-.48.516c-.148.148-.32.307-.148.615a9.126,9.126,0,0,0,1.623,2.189,8.125,8.125,0,0,0,2.4,1.6c.3.172.48.148.664-.049l1-1.156c.234-.307.43-.234.713-.135l2.054,1.082M-33.7-46a12.3,12.3,0,0,1,12.3,12.3,12.3,12.3,0,0,1-12.3,12.3,12.258,12.258,0,0,1-6.579-1.906L-46-21.406l1.906-5.718A12.258,12.258,0,0,1-46-33.7,12.3,12.3,0,0,1-33.7-46m0,2.459A9.835,9.835,0,0,0-43.541-33.7a9.776,9.776,0,0,0,1.8,5.669l-1.181,3.554,3.554-1.181a9.776,9.776,0,0,0,5.669,1.8A9.835,9.835,0,0,0-23.866-33.7,9.835,9.835,0,0,0-33.7-43.541Z" transform="translate(46 46)" fill="#e0af7e"/>
</svg>
