<svg id="youtube-y" xmlns="http://www.w3.org/2000/svg" width="49" height="49" viewBox="0 0 49 49">
  <path id="Path_34881" data-name="Path 34881" d="M24.5,0A24.5,24.5,0,1,1,0,24.5,24.5,24.5,0,0,1,24.5,0Z" transform="translate(0 0)" fill="#e0af7e" opacity="0.255"/>
  <path id="youtube_1_" data-name="youtube (1)" d="M25.821-3.194A3.3,3.3,0,0,0,23.5-5.518c-2.063-.564-10.315-.564-10.315-.564s-8.252,0-10.315.543A3.37,3.37,0,0,0,.544-3.194,34.8,34.8,0,0,0,0,3.148,34.674,34.674,0,0,0,.544,9.489a3.3,3.3,0,0,0,2.324,2.324c2.085.565,10.315.565,10.315.565s8.252,0,10.315-.543A3.3,3.3,0,0,0,25.822,9.51a34.813,34.813,0,0,0,.543-6.341,33.036,33.036,0,0,0-.543-6.363ZM10.555,7.1V-.8l6.862,3.952Zm0,0" transform="translate(12.376 21.352)" fill="#e0af7e"/>
</svg>
