<svg id="yt" xmlns="http://www.w3.org/2000/svg" width="48.944" height="48.944" viewBox="0 0 48.944 48.944">
  <path id="Path_34881" data-name="Path 34881" d="M24.472,0A24.472,24.472,0,1,1,0,24.472,24.472,24.472,0,0,1,24.472,0Z" fill="#fff" opacity="0.246"/>
  <path id="youtube_1_" data-name="youtube (1)" d="M25.792-3.2a3.3,3.3,0,0,0-2.321-2.321c-2.061-.564-10.3-.564-10.3-.564s-8.243,0-10.3.542A3.366,3.366,0,0,0,.543-3.2,34.763,34.763,0,0,0,0,3.137,34.635,34.635,0,0,0,.543,9.471a3.3,3.3,0,0,0,2.321,2.321c2.082.564,10.3.564,10.3.564s8.243,0,10.3-.542a3.3,3.3,0,0,0,2.321-2.321,34.774,34.774,0,0,0,.542-6.334A33,33,0,0,0,25.792-3.2ZM10.543,7.085v-7.9L17.4,3.137Zm0,0" transform="translate(12.362 22.087)" fill="#fff"/>
</svg>
