<svg xmlns="http://www.w3.org/2000/svg" xmlns:xlink="http://www.w3.org/1999/xlink" width="1920" height="797" viewBox="0 0 1920 797"><defs><clipPath id="a"><rect width="1920" height="797" fill="none" stroke="#707070" stroke-width="1" opacity="0"/></clipPath><clipPath id="c"><rect width="1920" height="797"/></clipPath></defs><g id="b" clip-path="url(#c)"><rect width="1920" height="797" fill="#fff"/><g clip-path="url(#a)"><path d="M23725.484,15676.86l-.7-.729a23.8,23.8,0,0,1-1.939-2.015l-487.18-505.823a23.548,23.548,0,0,1-6.584-16.329v-151.373a23.513,23.513,0,0,1-5.559,8.972l-317.143,320.3-21.342,24.893a23.559,23.559,0,0,1-17.193,8.208c-.221.006-.461.012-.682.012a23.548,23.548,0,0,1-16.953-7.208l-.725-.752a23.366,23.366,0,0,1-1.867-1.939l-487.225-505.881a23.541,23.541,0,0,1-6.59-16.329v-218.935a23.568,23.568,0,0,1,4.285-13.533l314.039-446.364a23.508,23.508,0,0,1,27.473-8.514l228.705,85.335a23.528,23.528,0,0,1,15.307,22.091l-.43,258.4,276.115,173.023a23.531,23.531,0,0,1,11.033,19.939l.006,223.131a23.5,23.5,0,0,1,3.029-5.956l314.027-446.357a23.517,23.517,0,0,1,27.484-8.514l228.7,85.335a23.531,23.531,0,0,1,15.311,22.084l-.43,258.406,140.5,88.036V14449.59a23.545,23.545,0,0,1,8.465-18.083l118.918-99.059a23.543,23.543,0,0,1,27.564-1.863l298.668,187.152a23.552,23.552,0,0,1,11.039,19.945l.006,290.687a23.538,23.538,0,0,1-6.816,16.563l-311.186,314.282,0,154.877a23.509,23.509,0,0,1-6.82,16.556l-317.121,320.28-21.363,24.922a23.584,23.584,0,0,1-17.193,8.208c-.221.006-.455.012-.676.012A23.552,23.552,0,0,1,23725.484,15676.86Zm-37.465-730.528v605.578l54.922,71.231,4.109-4.151,23.074-26.913,1.184-715.14Zm129.244,601.749,241.273-243.669,0-107.776q-.63,0-1.266-.035a23.576,23.576,0,0,1-17.182-9.127l-76.238-98.895a23.488,23.488,0,0,1-4.9-14.367v-100.193l-140.588-88.094Zm-176.312-26.852V14935.3a23.533,23.533,0,0,1,8.465-18.076l118.92-99.065a23.667,23.667,0,0,1,3.074-2.17l.377-227.675-181.605-67.762v947.959Zm-364.8-580.758v202l266.959,277.175v-858.628Zm-463.4-315.223v605.572l54.92,71.237,4.064-4.105,23.113-26.959,1.184-715.129ZM22941.992,15227l241.268-243.667v-268l-240.172-150.5Zm-176.311-26.844v-585.932a23.52,23.52,0,0,1,8.465-18.075l118.912-99.071a23.557,23.557,0,0,1,3.074-2.168l.377-227.677-181.605-67.757v947.96Zm1240.338-133.959,52.514,68.11,0-97.888-52.512-32.9Zm-1605.143-446.812v202l266.959,277.176v-858.63Zm1693.689,384.07a23.552,23.552,0,0,1,11.039,19.945l0,68.916,270.93-273.624-.006-267.988-273.182-171.18-97.33,81.094v487.352ZM22353.8,13949.065v-797h1920v797Z" transform="translate(-22407.801 -14142.066)" fill="#354c6c" stroke="#fff" stroke-width="1" opacity="0.4"/><path d="M9,0c4.971,0,9,4.477,9,10V821c0,5.523-4.029,10-9,10s-9-4.477-9-10V10C0,4.477,4.029,0,9,0Z" transform="translate(273.809 28)" fill="#fff"/><path d="M-22428.74-14019.557l42.066-36.97v353.571l-42.24-4.224Z" transform="translate(22853.613 14514.453)" fill="#fff"/><path d="M1391.43,998.063l194.045,112.066" transform="translate(-1.973 -290.629)" fill="none" stroke="#fff" stroke-width="18"/><path d="M1387.244,979.927l-160.053,129.347" transform="translate(-0.277 -291.773)" fill="none" stroke="#fff" stroke-width="18"/><path d="M1384.158,1011.344V961.227l2.49,388.812" transform="translate(2.809 -529.039)" fill="none" stroke="#fff" stroke-linejoin="round" stroke-width="17"/></g></g></svg>