<svg xmlns="http://www.w3.org/2000/svg" width="2070.809" height="1543.06" viewBox="0 0 2070.809 1543.06">
  <path id="bg-logo-lines" d="M24192.426,16778.822l-.713-.732a23.366,23.366,0,0,1-1.924-2l-487.187-505.827a23.53,23.53,0,0,1-6.584-16.329v-151.373a23.476,23.476,0,0,1-5.559,8.973l-317.152,320.313-21.332,24.887a23.564,23.564,0,0,1-17.191,8.2c-.225.006-.455.012-.682.012a23.563,23.563,0,0,1-16.953-7.2l-.73-.756a24.069,24.069,0,0,1-1.867-1.941l-487.225-505.878a23.556,23.556,0,0,1-6.584-16.329V15713.9a23.553,23.553,0,0,1,4.285-13.536L23139.063,15254a23.52,23.52,0,0,1,27.479-8.509l228.705,85.337a23.514,23.514,0,0,1,15.3,22.088l-.43,258.4,276.109,173.027a23.514,23.514,0,0,1,11.039,19.939l0,223.134a23.583,23.583,0,0,1,3.031-5.961l314.029-446.358a23.5,23.5,0,0,1,27.479-8.508l228.705,85.33a23.535,23.535,0,0,1,15.3,22.088l-.426,258.4,140.494,88.035v-468.885a23.527,23.527,0,0,1,8.471-18.077l118.912-99.066a23.551,23.551,0,0,1,27.566-1.862l298.668,187.151a23.558,23.558,0,0,1,11.039,19.946l.006,290.69a23.522,23.522,0,0,1-6.814,16.56l-311.193,314.284.006,154.875a23.5,23.5,0,0,1-6.814,16.553L24248.6,16752.9l-21.357,24.9a23.551,23.551,0,0,1-17.191,8.215c-.225.006-.455.006-.68.006A23.514,23.514,0,0,1,24192.426,16778.822Zm-37.469-730.521v605.58l54.922,71.232,4.066-4.105,23.113-26.961,1.186-715.141Zm129.25,601.744,241.268-243.67v-107.769c-.426-.007-.838-.02-1.262-.044a23.527,23.527,0,0,1-17.186-9.127l-76.24-98.892a23.486,23.486,0,0,1-4.9-14.367v-100.19l-140.588-88.1Zm-227.092-79.564,50.773,52.717v-585.922a23.545,23.545,0,0,1,8.471-18.085l118.912-99.06a23.262,23.262,0,0,1,3.08-2.168l.373-227.674-181.609-67.764Zm-314.029-528.046v202.006l266.967,277.173v-858.628Zm-463.4-315.215v605.568l54.922,71.237,4.059-4.1,23.119-26.967,1.188-715.13Zm129.244,601.745,241.268-243.672V15817.3l-240.174-150.5Zm-227.086-79.564,50.773,52.71v-585.922a23.549,23.549,0,0,1,8.463-18.078l118.92-99.066a23.315,23.315,0,0,1,3.072-2.168l.375-227.674-181.6-67.758Zm1291.113-81.238,52.51,68.1v-97.88l-52.51-32.907Zm-1605.143-446.814v202.006l266.959,277.179V15341.9Zm1605.143-158.766v487.349l88.547,55.489a23.56,23.56,0,0,1,11.037,19.946v68.92l270.932-273.625-.006-268-273.18-171.178Z" transform="translate(-22820.242 -15243.47)" fill="none" stroke="#000" stroke-width="1" opacity="0.07"/>
</svg>
