<svg xmlns="http://www.w3.org/2000/svg" xmlns:xlink="http://www.w3.org/1999/xlink" width="1005.901" height="1080" viewBox="0 0 1005.901 1080">
  <defs>
    <clipPath id="clip-path">
      <rect id="Rectangle_4040" data-name="Rectangle 4040" width="1005.901" height="1080" fill="#fff"/>
    </clipPath>
  </defs>
  <g id="Group_22384" data-name="Group 22384" clip-path="url(#clip-path)">
    <g id="login-fill" transform="translate(397.726 53.063)">
      <g id="Group_22374" data-name="Group 22374" transform="translate(396.223 446.883)">
        <g id="Group_22371" data-name="Group 22371" transform="translate(120.3 0)">
          <path id="Path_38052" data-name="Path 38052" d="M1619.577,441.967l-.683-521.642c-.006-5.228,2.554-9.908,6.422-11.734l84.994-40.152.054,570.056-2.8,3.676Zm90.39-546.679-71.313,33.689.672,513.333,41.027-.411,29.95-39.371Z" transform="translate(-1618.894 137.533)" fill="#fff"/>
        </g>
        <g id="Group_22372" data-name="Group 22372" transform="translate(0 185.709)">
          <path id="Path_38053" data-name="Path 38053" d="M1472.2,551.248l-92.838-118.714a14.37,14.37,0,0,1-2.859-8.8l0-154.422a13.549,13.549,0,0,1,4.631-10.594l125.31-99.42c3.62-2.868,8.28-2.469,11.566.99l49.891,52.625a14.048,14.048,0,0,1,3.553,9.6V551.281ZM1551.7,228.378,1510.865,185.3,1396.25,276.234l0,142.362L1500.18,551.5l17.168-.195,33.84-.384Z" transform="translate(-1376.499 -157.396)" fill="#fff"/>
        </g>
      </g>
      <g id="Group_22382" data-name="Group 22382" transform="translate(41.56 653.54)">
        <g id="Group_22379" data-name="Group 22379" transform="translate(120.299 0)">
          <path id="Path_38058" data-name="Path 38058" d="M904.685,563.8l-.413-315.278c-.006-5.228,2.554-9.909,6.423-11.734l95.954-45.33c4.209-2,8.947-.13,11.529,4.52l131.755,237.115a14.9,14.9,0,0,1,1.8,7.193v116.3a15.189,15.189,0,0,1-1.882,7.343C1149.694,564.225,904.685,563.8,904.685,563.8Zm227.3-119.558L1006.411,218.258l-82.379,38.916.4,306.554,198.25.044,9.3-12.223Z" transform="translate(-904.272 -190.664)" fill="#fff"/>
        </g>
        <g id="Group_22380" data-name="Group 22380" transform="translate(0 185.709)">
          <path id="Path_38059" data-name="Path 38059" d="M661.878,673.014v-75.5a13.549,13.549,0,0,1,4.631-10.594L791.82,487.5c3.619-2.868,8.28-2.469,11.565.99l49.892,52.625a14.045,14.045,0,0,1,3.553,9.6V672.7Zm175.2-116.439L796.243,513.5,681.629,604.431V672.74l155.453-.042Z" transform="translate(-661.877 -485.592)" fill="#fff"/>
        </g>
        <g id="Group_22381" data-name="Group 22381" transform="translate(216.253 6.838)">
          <path id="Path_38060" data-name="Path 38060" d="M1117.362,567.985V214.026c0-6.9-4.421-12.5-9.875-12.5s-9.875,5.6-9.875,12.5V567.865Z" transform="translate(-1097.612 -201.524)" fill="#fff"/>
        </g>
      </g>
    </g>
    <g id="Group_22529" data-name="Group 22529" transform="translate(-499.834 -1067.931)" opacity="0.06">
      <g id="Group_22354" data-name="Group 22354" transform="translate(1468.196 870.06)">
        <g id="Group_22351" data-name="Group 22351" transform="translate(165.719 0)">
          <path id="Path_38037" data-name="Path 38037" d="M2951.39,1049.275c-3.832-.142-7.439-2.321-9.937-6.006L2911.86,999.56a20.129,20.129,0,0,1-3.273-11.178l-.987-752.86c-.009-7.2,3.519-13.65,8.847-16.164l132.181-62.445c5.8-2.751,12.324-.179,15.882,6.227l181.5,326.639a20.523,20.523,0,0,1,2.476,9.908V659.9a19.878,19.878,0,0,1-3.8,11.949l-283.1,372.16a12.42,12.42,0,0,1-9.8,5.274C2951.653,1049.282,2951.52,1049.278,2951.39,1049.275Zm269.891-544.139-172.98-311.3-113.48,53.609.962,734.528,16.585,24.495,268.913-353.506Z" transform="translate(-2907.6 -155.82)" fill="none" stroke="#fff" stroke-width="2"/>
        </g>
        <g id="Group_22352" data-name="Group 22352" transform="translate(0 255.824)">
          <path id="Path_38038" data-name="Path 38038" d="M2866.425,1082.034,2669.143,829.764a19.8,19.8,0,0,1-3.938-12.116l0-212.724c0-5.931,2.412-11.444,6.379-14.594l172.621-136.956c4.986-3.95,11.407-3.4,15.932,1.364l68.729,72.494a19.347,19.347,0,0,1,4.894,13.23V997.546a20.326,20.326,0,0,1-2.831,10.513l-44.067,72.37c-2.394,3.935-6.016,6.369-9.931,6.676-.28.022-.561.033-.84.033A12.37,12.37,0,0,1,2866.425,1082.034Zm40.132-533.5L2850.3,489.189,2692.414,614.454l0,196.112,182.4,233.242,31.743-52.129Z" transform="translate(-2665.205 -450.748)" fill="none" stroke="#fff" stroke-width="2"/>
        </g>
        <g id="Group_22353" data-name="Group 22353" transform="translate(297.9 9.42)">
          <path id="Path_38039" data-name="Path 38039" d="M3114.543,916.472c7.513,0,13.6-7.71,13.6-17.222V183.9c0-9.511-6.09-17.222-13.6-17.222s-13.6,7.71-13.6,17.222V899.25C3100.941,908.762,3107.031,916.472,3114.543,916.472Z" transform="translate(-3100.941 -166.68)" fill="none" stroke="#fff" stroke-width="2"/>
        </g>
      </g>
      <g id="Group_22358" data-name="Group 22358" transform="translate(1567.62)">
        <g id="Group_22355" data-name="Group 22355" transform="translate(165.718)">
          <path id="Path_38040" data-name="Path 38040" d="M3096.816,46.218c-3.831-.141-7.438-2.32-9.936-6.006L3057.286-3.5a20.13,20.13,0,0,1-3.273-11.179l-.987-752.86c-.009-7.2,3.519-13.649,8.847-16.164l132.181-62.444c5.8-2.751,12.325-.18,15.882,6.226l181.5,326.639a20.526,20.526,0,0,1,2.476,9.908v160.214a19.883,19.883,0,0,1-3.8,11.948l-283.1,372.16a12.421,12.421,0,0,1-9.8,5.273C3097.079,46.226,3096.946,46.222,3096.816,46.218Zm269.892-544.139-172.981-311.3-113.48,53.608.962,734.529,16.585,24.495L3366.708-350.1Z" transform="translate(-3053.026 847.237)" fill="none" stroke="#fff" stroke-width="2"/>
        </g>
        <g id="Group_22356" data-name="Group 22356" transform="translate(0 255.823)">
          <path id="Path_38041" data-name="Path 38041" d="M3011.851,78.977,2814.569-173.292a19.793,19.793,0,0,1-3.938-12.117l0-212.723c0-5.931,2.411-11.444,6.379-14.595l172.621-136.956c4.986-3.95,11.406-3.4,15.931,1.364l68.728,72.494a19.347,19.347,0,0,1,4.895,13.231V-5.51A20.332,20.332,0,0,1,3076.357,5l-44.067,72.371c-2.395,3.935-6.017,6.369-9.931,6.675q-.42.034-.841.034A12.369,12.369,0,0,1,3011.851,78.977Zm40.132-533.5-56.256-59.342L2837.84-388.6l0,196.111,182.4,233.242,31.743-52.129Z" transform="translate(-2810.631 552.309)" fill="none" stroke="#fff" stroke-width="2"/>
        </g>
        <g id="Group_22357" data-name="Group 22357" transform="translate(297.9 9.421)">
          <path id="Path_38042" data-name="Path 38042" d="M3259.97-86.584c7.513,0,13.6-7.71,13.6-17.222V-819.155c0-9.512-6.09-17.222-13.6-17.222s-13.6,7.71-13.6,17.222v715.348C3246.367-94.295,3252.457-86.584,3259.97-86.584Z" transform="translate(-3246.367 836.376)" fill="none" stroke="#fff" stroke-width="2"/>
        </g>
      </g>
      <path id="Union_4" data-name="Union 4" d="M22642.244,6802.928a12.766,12.766,0,0,1-9.936-6l-12.346-18.229L22436.67,6544.31a19.793,19.793,0,0,1-3.934-12.115V6319.474c0-5.931,2.41-11.442,6.379-14.6l159.588-126.616-.248-189.087c-.012-7.2,3.516-13.651,8.844-16.167l71.119-33.6-180.605-230.939a19.8,19.8,0,0,1-3.934-12.115V5483.635c0-5.931,2.41-11.448,6.379-14.6l159.588-126.616-.248-189.087c-.012-7.2,3.516-13.651,8.844-16.167l132.18-62.442c5.8-2.753,12.328-.177,15.883,6.226l181.5,326.643a20.556,20.556,0,0,1,2.475,9.906v160.214a19.89,19.89,0,0,1-3.8,11.95l-245.256,322.41a15.562,15.562,0,0,1,3.939,4.717l176.223,317.132V6034.783c0-5.925,2.41-11.442,6.379-14.59l159.588-126.609-.248-189.1c-.012-7.194,3.516-13.645,8.844-16.161l105.313-49.75-177.365-226.8a19.8,19.8,0,0,1-3.939-12.115l.006-212.727c0-5.93,2.408-11.441,6.379-14.6l159.582-126.61-.248-189.093c-.006-7.2,3.52-13.645,8.848-16.161l132.18-62.442c5.8-2.753,12.328-.183,15.885,6.226l181.5,326.637a20.58,20.58,0,0,1,2.477,9.912v160.208a19.878,19.878,0,0,1-3.8,11.95l-269.986,354.916,172.74,310.868a20.6,20.6,0,0,1,2.475,9.912v160.214a19.9,19.9,0,0,1-3.8,11.95L23152.8,6510.965a16.037,16.037,0,0,1-1.121,1.483l-.408.531a12.428,12.428,0,0,1-9.793,5.269c-.131,0-.266,0-.4-.006-3.834-.142-7.432-2.321-9.936-6.007l-12.346-18.229-179.465-229.491v149.038a19.9,19.9,0,0,1-3.8,11.95l-281.578,370.153a15.646,15.646,0,0,1-1.115,1.465l-.408.538a12.412,12.412,0,0,1-9.8,5.275C22642.5,6802.934,22642.373,6802.928,22642.244,6802.928Zm-15.605-67.31,13.361,19.741,2.344,3,31.744-52.129V6263.08l-48.135-50.776ZM22459.938,6329v196.111l139.451,178.313-.637-484.553ZM22625.67,6001.1l.223,166.605a14.335,14.335,0,0,1,1.779,1.583l68.727,72.5a19.339,19.339,0,0,1,4.9,13.226v428.768l29.34-38.567V5951.512l-14.381,6.794-1.16,1.523a16.167,16.167,0,0,1-1.1,1.453l-.414.538a12.412,12.412,0,0,1-9.8,5.275c-.131,0-.26-.006-.391-.006a11.066,11.066,0,0,1-3.887-.869Zm132.168,608.345,154.295-202.827V6258.792l-154.295-277.68Zm367.643-158.5,13.361,19.729,2.344,3,31.744-52.129V5978.389l-48.135-50.77Zm-166.7-406.617v196.1l139.451,178.313-.637-484.553Zm165.732-327.913.219,166.6a14.956,14.956,0,0,1,1.783,1.589l68.727,72.5a19.356,19.356,0,0,1,4.891,13.231v428.768l29.346-38.578V5666.821Zm132.168,608.345,154.295-202.833V5974.1l-154.295-277.674Zm-568.9-424.976,13.355,19.735,2.35,3,31.744-52.129V5427.241l-48.135-50.776Zm-166.7-406.617-.006,196.11,139.451,178.313-.637-484.553Zm165.732-327.907.219,166.605a14.753,14.753,0,0,1,1.777,1.583l68.727,72.5a19.357,19.357,0,0,1,4.893,13.231v428.762l29.346-38.573V5115.667ZM22818.98,5773.6l154.295-202.833V5422.946l-154.295-277.674Zm405.08-170.521,13.361,19.741,2.027,2.6c.229-.081.459-.154.688-.219l31.369-51.511V5130.535l-48.131-50.776Zm-166.7-406.617v196.11l139.451,178.313-.639-484.559ZM23223.1,4868.55l.219,166.605a14.664,14.664,0,0,1,1.777,1.589l68.723,72.5a19.328,19.328,0,0,1,4.9,13.226v428.768l29.346-38.573V4818.967ZM23355.26,5476.9l154.295-202.833V5126.246l-154.295-277.674Z" transform="translate(-21948.059 -4458.029)" fill="none" stroke="#fff" stroke-width="2"/>
      <g id="Group_22378" data-name="Group 22378" transform="translate(0 1748.141)">
        <g id="Group_22375" data-name="Group 22375" transform="translate(165.719)">
          <path id="Path_38055" data-name="Path 38055" d="M803.874,2061.577c-3.831-.141-7.439-2.32-9.936-6.006l-29.594-43.709a20.132,20.132,0,0,1-3.274-11.178l-.986-752.86c-.009-7.2,3.519-13.649,8.847-16.164l132.181-62.444c5.8-2.751,12.325-.18,15.882,6.226l181.5,326.639a20.517,20.517,0,0,1,2.477,9.907V1672.2a19.878,19.878,0,0,1-3.805,11.948l-283.1,372.16a12.416,12.416,0,0,1-9.8,5.274C804.137,2061.584,804,2061.581,803.874,2061.577Zm269.892-544.139-172.981-311.3L787.3,1259.742l.963,734.529,16.584,24.495,268.915-353.507Z" transform="translate(-760.084 -1168.123)" fill="none" stroke="#fff" stroke-width="2"/>
        </g>
        <g id="Group_22376" data-name="Group 22376" transform="translate(0 255.823)">
          <path id="Path_38056" data-name="Path 38056" d="M718.909,2094.335,521.627,1842.067a19.8,19.8,0,0,1-3.938-12.117l0-212.723c0-5.932,2.412-11.445,6.379-14.6l172.621-136.956c4.985-3.95,11.406-3.4,15.932,1.364l68.728,72.494a19.346,19.346,0,0,1,4.894,13.231v457.084a20.327,20.327,0,0,1-2.831,10.513l-44.067,72.37c-2.393,3.936-6.016,6.369-9.93,6.675q-.421.034-.841.034A12.367,12.367,0,0,1,718.909,2094.335Zm40.132-533.5-56.256-59.342L544.9,1626.757l0,196.111L727.3,2056.11l31.743-52.129Z" transform="translate(-517.689 -1463.05)" fill="none" stroke="#fff" stroke-width="2"/>
        </g>
        <g id="Group_22377" data-name="Group 22377" transform="translate(297.9 9.42)">
          <path id="Path_38057" data-name="Path 38057" d="M967.027,1928.774c7.513,0,13.6-7.71,13.6-17.222V1196.2c0-9.512-6.09-17.222-13.6-17.222s-13.6,7.71-13.6,17.222v715.348C953.424,1921.064,959.514,1928.774,967.027,1928.774Z" transform="translate(-953.424 -1178.982)" fill="none" stroke="#fff" stroke-width="2"/>
        </g>
      </g>
      <g id="Group_22382-2" data-name="Group 22382" transform="translate(57.251 900.284)">
        <g id="Group_22379-2" data-name="Group 22379" transform="translate(165.719 0)">
          <path id="Path_38058-2" data-name="Path 38058" d="M948.062,1084.119c-3.831-.142-7.439-2.321-9.936-6.006L908.532,1034.4a20.131,20.131,0,0,1-3.274-11.178l-.986-752.86c-.009-7.2,3.519-13.65,8.847-16.164L1045.3,191.758c5.8-2.751,12.324-.18,15.882,6.226l181.5,326.639a20.521,20.521,0,0,1,2.477,9.908V694.744a19.88,19.88,0,0,1-3.805,11.949l-283.1,372.16a12.417,12.417,0,0,1-9.8,5.274C948.325,1084.126,948.192,1084.122,948.062,1084.119ZM1217.954,539.98l-172.98-311.3L931.492,282.284l.963,734.528,16.584,24.495L1217.954,687.8Z" transform="translate(-904.272 -190.664)" fill="none" stroke="#fff" stroke-width="2"/>
        </g>
        <g id="Group_22380-2" data-name="Group 22380" transform="translate(0 255.823)">
          <path id="Path_38059-2" data-name="Path 38059" d="M863.1,1116.878,665.815,864.609a19.8,19.8,0,0,1-3.938-12.117l0-212.724c0-5.931,2.412-11.444,6.379-14.594L840.88,488.218c4.985-3.95,11.406-3.4,15.932,1.364l68.728,72.494a19.347,19.347,0,0,1,4.894,13.231V1032.39A20.329,20.329,0,0,1,927.6,1042.9l-44.067,72.37c-2.393,3.935-6.016,6.369-9.93,6.675q-.42.034-.841.034A12.368,12.368,0,0,1,863.1,1116.878Zm40.132-533.5-56.256-59.342L689.086,649.3l0,196.111,182.4,233.242,31.743-52.129Z" transform="translate(-661.877 -485.592)" fill="none" stroke="#fff" stroke-width="2"/>
        </g>
        <g id="Group_22381-2" data-name="Group 22381" transform="translate(297.9 9.42)">
          <path id="Path_38060-2" data-name="Path 38060" d="M1111.215,951.316c7.513,0,13.6-7.71,13.6-17.222V218.746c0-9.512-6.09-17.222-13.6-17.222s-13.6,7.71-13.6,17.222V934.094C1097.612,943.605,1103.7,951.316,1111.215,951.316Z" transform="translate(-1097.612 -201.524)" fill="none" stroke="#fff" stroke-width="2"/>
        </g>
      </g>
    </g>
  </g>
</svg>
