<svg xmlns="http://www.w3.org/2000/svg" xmlns:xlink="http://www.w3.org/1999/xlink" width="1922.48" height="799.484" viewBox="0 0 1922.48 799.484">
  <defs>
    <clipPath id="clip-path">
      <rect id="Rectangle_4379" data-name="Rectangle 4379" width="1921" height="796" transform="translate(0.191 284)" fill="none" stroke="#707070" stroke-width="1" opacity="0.21"/>
    </clipPath>
  </defs>
  <g id="Group_22525" data-name="Group 22525" transform="translate(1.154 -283.428)">
    <path id="Union_2" data-name="Union 2" d="M23277.957,14937.9l265.129.033.021-376.907-264.969,376.618-.182.256-47.625-.006v.317l-47.068-.021v-222.859l-240.178-150.5-.617,373.254,240.795.1v.271l-243.506-.208-44.357-.018v-.021l-82.646-.071v-.113l82.646.035.633-382.205-83.279,69.388v312.782l-47.074-.021V14614.22a23.513,23.513,0,0,1,8.469-18.073l118.914-99.069a23.531,23.531,0,0,1,3.072-2.167l.377-227.68-181.607-67.758c-.012,121.509-.064,728.619,0,738.631-.131-.41-2.375-.116-30.369.052l30.369.013v-.064a.173.173,0,0,1,.006.064l180.49.071v.073l-180.494-.095v0l-38.461-.021q-4.017.018-8.607.03v-.035l-154.541-.081-.021-.023,154.563.062v-698.222l-260.666,370.507-.217-81.486,265.168-376.913a23.525,23.525,0,0,1,27.477-8.512l228.7,85.333a23.526,23.526,0,0,1,15.309,22.1l-.428,258.391,276.115,173.027a23.539,23.539,0,0,1,11.039,19.941v223.131a23.552,23.552,0,0,1,3.033-5.96l314.025-446.358a23.515,23.515,0,0,1,27.482-8.511l228.7,85.332a23.543,23.543,0,0,1,15.309,22.09l-.428,258.4,140.5,88.04v-468.882a23.549,23.549,0,0,1,8.463-18.084l118.92-99.064a23.543,23.543,0,0,1,27.561-1.862l214.418,134.354.121,469.23-66.994.77,66.506-67.168-.58-347.875-224.016-140.368-97.336,81.089v477.256l-15.82.182.465.291s-208.041.6-315.311.191l-399.2,1.939Zm493.254.165-14.35.069,144.809-.008-83.3-52.2-.086,52.043-47.068-.006.1-61.027-73.242,61.019,73.143.009Zm-130.258-.12c.035-6.972,3.133-16.28,8.463-20.725l118.92-99.058a23.376,23.376,0,0,1,3.076-2.171l.373-227.676-181.605-67.759v417.382h12.273c-2.076-.053,5.176-.034,13.928,0Zm-1193.053.114-39.967-41.494-.182-68.042,105.523,109.562Zm1558.115-.192,255.426-2.934-2.859,2.888-252.566.189Zm-1598.662-109.758-.2-217.647.02-.03.58,218.092Z" transform="translate(-22407.609 -13858.066)" fill="#354c6c" stroke="#fff" stroke-width="1" opacity="0.4"/>
    <g id="Mask_Group_1" data-name="Mask Group 1" clip-path="url(#clip-path)">
      <path id="Path_38124" data-name="Path 38124" d="M9,0c4.971,0,9,4.477,9,10V767.972c-18.23-.49-18-.274-18-.274V10C0,4.477,4.029,0,9,0Z" transform="translate(274 312)" fill="#fff"/>
      <path id="Path_38123" data-name="Path 38123" d="M-22428.74-14020.452l42.066-36.074v337.611l-42.238-.717Z" transform="translate(22853.803 14798.455)" fill="#fff"/>
      <path id="Path_38125" data-name="Path 38125" d="M1391.43,998.063l168.419,97.267" transform="translate(-1.781 -6.63)" fill="none" stroke="#fff" stroke-width="18"/>
      <path id="Path_38126" data-name="Path 38126" d="M1392.9,979.927l-141.581,114.419" transform="translate(-5.746 -7.774)" fill="none" stroke="#fff" stroke-width="18"/>
      <path id="Path_38127" data-name="Path 38127" d="M1384.158,1008.122V961.227l2.49,363.812" transform="translate(3 -245.039)" fill="none" stroke="#fff" stroke-linejoin="round" stroke-width="17"/>
    </g>
  </g>
</svg>
