<svg xmlns="http://www.w3.org/2000/svg" xmlns:xlink="http://www.w3.org/1999/xlink" width="1921" height="1079.496" viewBox="0 0 1921 1079.496">
  <defs>
    <clipPath id="clip-path">
      <rect id="Rectangle_4379" data-name="Rectangle 4379" width="1920" height="1079" transform="translate(0.191)" fill="rgba(51,238,15,0.97)" stroke="#707070" stroke-width="1" opacity="0"/>
    </clipPath>
  </defs>
  <g id="Group_22524" data-name="Group 22524" transform="translate(0.309)">
    <path id="Union_2" data-name="Union 2" d="M24259.328,14937.063l68.473-69.151v66.9l-2.229,2.247Zm-359.35,0-81.611-51.134-.086,51.134h-47.074l.1-60.121-72.166,60.121h-58.191v-1.759a23.525,23.525,0,0,1,8.463-18.072l118.922-99.067a22.347,22.347,0,0,1,3.07-2.168l.379-227.679-181.607-67.759v416.5h-47.066V14561.02l-264.562,376.043h-95.289v-221.727l-240.176-150.5-.617,372.227H22895.4l.629-381.2-83.279,69.389v311.813h-47.074v-322.846a23.511,23.511,0,0,1,8.469-18.072l118.91-99.067a22.982,22.982,0,0,1,3.078-2.174l.371-227.673-181.6-67.759v737.591h-47.068v-697.13L22407.8,14609.54v-81.8l264.324-375.7a23.5,23.5,0,0,1,27.475-8.511l228.705,85.33a23.53,23.53,0,0,1,15.307,22.1l-.434,258.39,276.119,173.029a23.523,23.523,0,0,1,11.033,19.935l.006,223.137a23.4,23.4,0,0,1,3.027-5.959l314.029-446.359a23.514,23.514,0,0,1,27.48-8.511l228.7,85.336a23.527,23.527,0,0,1,15.313,22.084l-.428,258.408,140.494,88.028v-468.882a23.561,23.561,0,0,1,8.463-18.085l118.922-99.055a23.533,23.533,0,0,1,27.561-1.862l213.9,134.033v55.548l-224.449-140.646-97.334,81.093v476.447Zm-1453.035,0-39.143-40.639v-67.844l104.488,108.482Z" transform="translate(-22407.609 -13858.066)" fill="#354c6c" stroke="#fff" stroke-width="1" opacity="0.4"/>
    <g id="Mask_Group_1" data-name="Mask Group 1" clip-path="url(#clip-path)">
      <path id="Path_38124" data-name="Path 38124" d="M9,0c4.971,0,9,4.477,9,10V821c0,5.523-4.029,10-9,10s-9-4.477-9-10V10C0,4.477,4.029,0,9,0Z" transform="translate(274 312)" fill="#fff"/>
      <path id="Path_38123" data-name="Path 38123" d="M-22428.74-14019.557l42.066-36.97v353.571l-42.24-4.224Z" transform="translate(22853.803 14798.455)" fill="#fff"/>
      <path id="Path_38125" data-name="Path 38125" d="M1391.43,998.063l194.045,112.066" transform="translate(-1.781 -6.63)" fill="none" stroke="#fff" stroke-width="18"/>
      <path id="Path_38126" data-name="Path 38126" d="M1387.244,979.927l-160.053,129.347" transform="translate(-0.086 -7.773)" fill="none" stroke="#fff" stroke-width="18"/>
      <path id="Path_38127" data-name="Path 38127" d="M1384.158,1011.344V961.227l2.49,388.812" transform="translate(3 -245.039)" fill="none" stroke="#fff" stroke-linejoin="round" stroke-width="17"/>
    </g>
  </g>
</svg>
