<svg xmlns="http://www.w3.org/2000/svg" width="150.838" height="167.522" viewBox="0 0 150.838 167.522">
  <g id="logo-stack" transform="translate(-969.023 -323.043)">
    <g id="Group_22349" data-name="Group 22349" transform="translate(969.023 426.785)">
      <g id="Group_22343" data-name="Group 22343" transform="translate(127.148 18.266)">
        <path id="Path_38031" data-name="Path 38031" d="M1164.307,483.147v22.768a22.77,22.77,0,0,1-22.747,22.747h-.943v-8.252a14.429,14.429,0,0,0,14.419-14.42V483.147Z" transform="translate(-1140.618 -483.147)" fill="#fff"/>
      </g>
      <g id="Group_22344" data-name="Group 22344" transform="translate(119.361 0)">
        <rect id="Rectangle_4038" data-name="Rectangle 4038" width="9.376" height="44.307" fill="#fff"/>
      </g>
      <g id="Group_22345" data-name="Group 22345" transform="translate(0 18.266)">
        <path id="Path_38032" data-name="Path 38032" d="M1106.984,483.253V509.3h-84.525l-.075.435a22.68,22.68,0,0,1-22.429,18.932h-.932v-8.252a14.436,14.436,0,0,0,14.42-14.42V483.147h9.271v16.761h74.894V483.253Z" transform="translate(-999.023 -483.147)" fill="#fff"/>
      </g>
      <g id="Group_22346" data-name="Group 22346" transform="translate(97.949 53.769)">
        <path id="Path_38033" data-name="Path 38033" d="M1118.113,527.7a5.006,5.006,0,1,1-5.011-5.012A5.012,5.012,0,0,1,1118.113,527.7Z" transform="translate(-1108.101 -522.684)" fill="#fff"/>
      </g>
      <g id="Group_22347" data-name="Group 22347" transform="translate(85.394 53.769)">
        <path id="Path_38034" data-name="Path 38034" d="M1099.132,522.684a5.006,5.006,0,1,0,5,5.012A5.015,5.015,0,0,0,1099.132,522.684Z" transform="translate(-1094.12 -522.684)" fill="#fff"/>
      </g>
      <g id="Group_22348" data-name="Group 22348" transform="translate(13.678)">
        <path id="Path_38035" data-name="Path 38035" d="M1019.256,462.806a5.012,5.012,0,1,0,5.012,5.012A5.019,5.019,0,0,0,1019.256,462.806Z" transform="translate(-1014.255 -462.806)" fill="#fff"/>
      </g>
    </g>
    <path id="Path_38036" data-name="Path 38036" d="M1091.283,374.613V348.819a2.474,2.474,0,0,0-1.167-2.109l-24.309-15.234.037-22.705a2.5,2.5,0,0,0-1.62-2.337l-20.291-7.572a2.488,2.488,0,0,0-2.907.9l-27.862,39.606a2.479,2.479,0,0,0-.453,1.432v19.426a2.477,2.477,0,0,0,.7,1.727l43.459,45.126a2.5,2.5,0,0,0,1.793.762h.072a2.5,2.5,0,0,0,1.818-.869l1.883-2.2,28.129-28.41A2.475,2.475,0,0,0,1091.283,374.613Zm-32.54,26.813-4.509-5.849V342.169l6.585-5.487-.1,62.446-1.944,2.268Zm7.054-64.08L1086.3,350.2v23.392L1065.7,394.4Zm-4.967-7.137c-.042.031-.088.057-.129.091l-10.551,8.79a2.484,2.484,0,0,0-.9,1.913V392l-3.7-3.844V304.782l15.31,5.712Zm-20.256,52.774-22.883-23.76V341.588l22.883-32.527Z" transform="translate(-14.703 24.338)" fill="#fff"/>
  </g>
</svg>
