<svg xmlns="http://www.w3.org/2000/svg" xmlns:xlink="http://www.w3.org/1999/xlink" width="1920" height="797" viewBox="0 0 1920 797"><defs><clipPath id="a"><rect width="1920" height="797" transform="translate(0.191 284)" fill="none" stroke="#707070" stroke-width="1" opacity="0"/></clipPath></defs><g transform="translate(-0.191 -284)" clip-path="url(#a)"><path d="M23725.484,15676.86l-.711-.735a23.69,23.69,0,0,1-1.926-2l-487.186-505.826a23.532,23.532,0,0,1-6.584-16.329v-151.373a23.513,23.513,0,0,1-5.559,8.972l-317.154,320.317-21.33,24.879a23.557,23.557,0,0,1-17.187,8.208c-.227.006-.459.012-.687.012a23.572,23.572,0,0,1-16.953-7.208l-.73-.754a24.778,24.778,0,0,1-1.863-1.937l-487.223-505.882a23.541,23.541,0,0,1-6.59-16.329v-218.935a23.515,23.515,0,0,1,4.291-13.533l314.033-446.364a23.508,23.508,0,0,1,27.473-8.514l228.705,85.335a23.528,23.528,0,0,1,15.307,22.091l-.43,258.4,276.115,173.024a23.531,23.531,0,0,1,11.033,19.939l.006,223.131a23.5,23.5,0,0,1,3.029-5.956l314.027-446.357a23.5,23.5,0,0,1,27.484-8.508l228.7,85.329a23.531,23.531,0,0,1,15.311,22.084l-.434,258.4,140.5,88.039V14449.59a23.551,23.551,0,0,1,8.471-18.083l118.912-99.059a23.543,23.543,0,0,1,27.564-1.863l298.668,187.152a23.552,23.552,0,0,1,11.039,19.945l.006,290.687a23.513,23.513,0,0,1-6.816,16.563l-311.189,314.284.006,154.875a23.509,23.509,0,0,1-6.82,16.556l-317.131,320.286-21.354,24.916a23.584,23.584,0,0,1-17.193,8.208c-.221.006-.455.012-.676.012A23.552,23.552,0,0,1,23725.484,15676.86Zm-37.465-730.528v605.578l54.922,71.231,4.063-4.1,23.115-26.963,1.189-715.138Zm129.248,601.747,241.27-243.667-.006-107.775c-.416,0-.834-.012-1.262-.036a23.6,23.6,0,0,1-17.182-9.127l-76.238-98.895a23.488,23.488,0,0,1-4.9-14.367v-100.193l-140.594-88.093Zm-227.094-79.567,50.777,52.72V14935.3a23.533,23.533,0,0,1,8.465-18.076l118.92-99.065a23.251,23.251,0,0,1,3.07-2.169l.381-227.676-181.613-67.762Zm-314.021-528.04v202l266.959,277.177v-858.63Zm-463.4-315.223v605.572l54.92,71.237,4.059-4.1,23.119-26.964,1.184-715.131ZM22941.99,15227l241.27-243.666v-268l-240.172-150.5Zm-227.086-79.567,50.777,52.721v-585.934a23.517,23.517,0,0,1,8.465-18.069l118.912-99.071a23.613,23.613,0,0,1,3.076-2.17l.375-227.675-181.605-67.756Zm1291.115-81.234,52.512,68.105v-97.883l-52.512-32.9Zm-1605.143-446.812v202l266.959,277.177v-858.636Zm1605.143-158.767v487.353l88.547,55.484a23.547,23.547,0,0,1,11.033,19.945l.006,68.92,270.932-273.628-.006-267.988-273.182-171.18Z" transform="translate(-22407.609 -13858.066)" fill="#354c6c" stroke="#fff" stroke-width="1" opacity="0.4"/><path d="M9,0c4.971,0,9,4.477,9,10V821c0,5.523-4.029,10-9,10s-9-4.477-9-10V10C0,4.477,4.029,0,9,0Z" transform="translate(274 312)" fill="#fff"/><path d="M-22428.74-14019.557l42.066-36.97v353.571l-42.24-4.224Z" transform="translate(22853.803 14798.455)" fill="#fff"/><path d="M1391.43,998.063l194.045,112.066" transform="translate(-1.781 -6.63)" fill="none" stroke="#fff" stroke-width="18"/><path d="M1387.244,979.927l-160.053,129.347" transform="translate(-0.086 -7.773)" fill="none" stroke="#fff" stroke-width="18"/><path d="M1384.158,1011.344V961.227l2.49,388.812" transform="translate(3 -245.039)" fill="none" stroke="#fff" stroke-linejoin="round" stroke-width="17"/></g></svg>